<svg width="33" height="33" viewBox="0 0 33 33" fill="none" xmlns="http://www.w3.org/2000/svg">
<path d="M17.6551 2.5693L21.4029 10.1357C21.4881 10.3278 21.6222 10.4941 21.7918 10.6182C21.9614 10.7423 22.1605 10.8197 22.3693 10.8429L30.6429 12.0686C30.8825 12.0994 31.1083 12.1977 31.2941 12.352C31.4799 12.5064 31.6179 12.7104 31.692 12.9403C31.7662 13.1701 31.7734 13.4164 31.7128 13.6502C31.6523 13.884 31.5265 14.0958 31.3501 14.2607L25.3865 20.1772C25.2343 20.3194 25.12 20.4974 25.0542 20.695C24.9883 20.8926 24.9729 21.1035 25.0093 21.3086L26.4472 29.6293C26.4888 29.8684 26.4625 30.1144 26.3712 30.3392C26.28 30.5641 26.1274 30.7588 25.9309 30.9013C25.7345 31.0437 25.5019 31.1282 25.2598 31.145C25.0177 31.1618 24.7758 31.1103 24.5615 30.9964L17.1129 27.06C16.9222 26.9664 16.7125 26.9177 16.5001 26.9177C16.2876 26.9177 16.0779 26.9664 15.8872 27.06L8.43862 30.9964C8.22433 31.1103 7.98237 31.1618 7.74026 31.145C7.49816 31.1282 7.26564 31.0437 7.06916 30.9013C6.87268 30.7588 6.72012 30.5641 6.62886 30.3392C6.53759 30.1144 6.51128 29.8684 6.55291 29.6293L7.99077 21.2143C8.02721 21.0092 8.01179 20.7983 7.94593 20.6007C7.88006 20.4031 7.76583 20.2251 7.61362 20.0829L1.57934 14.2607C1.40081 14.0912 1.27527 13.8736 1.2179 13.6342C1.16054 13.3948 1.17382 13.144 1.25614 12.912C1.33846 12.68 1.48629 12.4768 1.68171 12.3271C1.87713 12.1774 2.11177 12.0876 2.3572 12.0686L10.6308 10.8429C10.8396 10.8197 11.0387 10.7423 11.2083 10.6182C11.3779 10.4941 11.512 10.3278 11.5972 10.1357L15.3451 2.5693C15.4471 2.34892 15.6101 2.16235 15.8147 2.03159C16.0194 1.90084 16.2572 1.83136 16.5001 1.83136C16.7429 1.83136 16.9807 1.90084 17.1854 2.03159C17.39 2.16235 17.553 2.34892 17.6551 2.5693Z" fill="#CCCCCC"/>
</svg>
