<svg width="39" height="40" viewBox="0 0 39 40" fill="none" xmlns="http://www.w3.org/2000/svg">
<g filter="url(#filter0_d_30_6676)">
<path d="M20.6548 2.56929L24.4027 10.1357C24.4879 10.3278 24.622 10.4941 24.7916 10.6182C24.9611 10.7423 25.1603 10.8197 25.3691 10.8429L33.6427 12.0686C33.8822 12.0994 34.1081 12.1977 34.2938 12.352C34.4796 12.5064 34.6176 12.7104 34.6918 12.9403C34.7659 13.1701 34.7732 13.4164 34.7126 13.6502C34.652 13.884 34.5262 14.0957 34.3498 14.2607L28.3862 20.1771C28.234 20.3193 28.1198 20.4973 28.0539 20.6949C27.9881 20.8926 27.9727 21.1035 28.0091 21.3086L29.447 29.6293C29.4886 29.8684 29.4623 30.1143 29.371 30.3392C29.2797 30.5641 29.1272 30.7588 28.9307 30.9013C28.7342 31.0437 28.5017 31.1282 28.2596 31.145C28.0175 31.1618 27.7755 31.1103 27.5612 30.9964L20.1127 27.06C19.9219 26.9664 19.7123 26.9177 19.4998 26.9177C19.2873 26.9177 19.0777 26.9664 18.887 27.06L11.4384 30.9964C11.2241 31.1103 10.9821 31.1618 10.74 31.145C10.4979 31.1282 10.2654 31.0437 10.0689 30.9013C9.87243 30.7588 9.71988 30.5641 9.62861 30.3392C9.53735 30.1143 9.51103 29.8684 9.55267 29.6293L10.9905 21.2143C11.027 21.0092 11.0115 20.7983 10.9457 20.6007C10.8798 20.4031 10.7656 20.2251 10.6134 20.0829L4.57909 14.2607C4.40057 14.0912 4.27502 13.8736 4.21766 13.6342C4.1603 13.3948 4.17358 13.1439 4.2559 12.912C4.33822 12.68 4.48604 12.4768 4.68147 12.3271C4.87689 12.1774 5.11152 12.0876 5.35695 12.0686L13.6305 10.8429C13.8394 10.8197 14.0385 10.7423 14.2081 10.6182C14.3776 10.4941 14.5117 10.3278 14.597 10.1357L18.3448 2.56929C18.4469 2.34891 18.6098 2.16234 18.8145 2.03158C19.0192 1.90083 19.2569 1.83135 19.4998 1.83135C19.7427 1.83135 19.9805 1.90083 20.1851 2.03158C20.3898 2.16234 20.5527 2.34891 20.6548 2.56929Z" fill="#F69D40"/>
</g>
<defs>
<filter id="filter0_d_30_6676" x="-1" y="0" width="41" height="41" filterUnits="userSpaceOnUse" color-interpolation-filters="sRGB">
<feFlood flood-opacity="0" result="BackgroundImageFix"/>
<feColorMatrix in="SourceAlpha" type="matrix" values="0 0 0 0 0 0 0 0 0 0 0 0 0 0 0 0 0 0 127 0" result="hardAlpha"/>
<feOffset dy="4"/>
<feGaussianBlur stdDeviation="2"/>
<feComposite in2="hardAlpha" operator="out"/>
<feColorMatrix type="matrix" values="0 0 0 0 0 0 0 0 0 0 0 0 0 0 0 0 0 0 0.25 0"/>
<feBlend mode="normal" in2="BackgroundImageFix" result="effect1_dropShadow_30_6676"/>
<feBlend mode="normal" in="SourceGraphic" in2="effect1_dropShadow_30_6676" result="shape"/>
</filter>
</defs>
</svg>
